<mxfile host="Electron" agent="Mozilla/5.0 (X11; Linux x86_64) AppleWebKit/537.36 (KHTML, like Gecko) draw.io/26.1.1 Chrome/132.0.6834.210 Electron/34.3.3 Safari/537.36" version="26.1.1">
  <diagram name="PÃ¡gina-1" id="YhkoMaexi8Z3SvAkdoTA">
    <mxGraphModel dx="1114" dy="1027" grid="1" gridSize="10" guides="1" tooltips="1" connect="1" arrows="1" fold="1" page="1" pageScale="1" pageWidth="827" pageHeight="1169" math="0" shadow="0">
      <root>
        <mxCell id="0" />
        <mxCell id="1" parent="0" />
        <mxCell id="OUO9ABPIe2xUgSs92kLb-1" value="" style="fontColor=#0066CC;verticalAlign=top;verticalLabelPosition=bottom;labelPosition=center;align=center;html=1;outlineConnect=0;fillColor=#99FF99;strokeColor=#333333;gradientColor=none;gradientDirection=north;strokeWidth=2;shape=mxgraph.networks.server;" vertex="1" parent="1">
          <mxGeometry x="262.5" y="820" width="90" height="100" as="geometry" />
        </mxCell>
        <mxCell id="OUO9ABPIe2xUgSs92kLb-6" value="LOCALCLOUD" style="text;html=1;align=center;verticalAlign=middle;whiteSpace=wrap;rounded=0;fontFamily=Courier New;fontStyle=1;fontSize=14;" vertex="1" parent="1">
          <mxGeometry x="250" y="930" width="115" height="30" as="geometry" />
        </mxCell>
        <mxCell id="OUO9ABPIe2xUgSs92kLb-7" value="" style="fontColor=#0066CC;verticalAlign=top;verticalLabelPosition=bottom;labelPosition=center;align=center;html=1;outlineConnect=0;fillColor=#99FF99;strokeColor=#333333;gradientColor=none;gradientDirection=north;strokeWidth=2;shape=mxgraph.networks.server;" vertex="1" parent="1">
          <mxGeometry x="445" y="820" width="90" height="100" as="geometry" />
        </mxCell>
        <mxCell id="OUO9ABPIe2xUgSs92kLb-8" value="WORKSTATION" style="text;html=1;align=center;verticalAlign=middle;whiteSpace=wrap;rounded=0;fontFamily=Courier New;fontStyle=1;fontSize=14;" vertex="1" parent="1">
          <mxGeometry x="432.5" y="930" width="115" height="30" as="geometry" />
        </mxCell>
        <mxCell id="OUO9ABPIe2xUgSs92kLb-9" value="" style="fontColor=#0066CC;verticalAlign=top;verticalLabelPosition=bottom;labelPosition=center;align=center;html=1;outlineConnect=0;fillColor=#FFFF33;strokeColor=#4D4D4D;gradientColor=none;gradientDirection=north;strokeWidth=2;shape=mxgraph.networks.modem;" vertex="1" parent="1">
          <mxGeometry x="352.5" y="40" width="100" height="30" as="geometry" />
        </mxCell>
        <mxCell id="OUO9ABPIe2xUgSs92kLb-10" value="MODEM OPERADORA" style="text;html=1;align=center;verticalAlign=middle;whiteSpace=wrap;rounded=0;fontFamily=Courier New;fontStyle=1;fontSize=14;" vertex="1" parent="1">
          <mxGeometry x="330" y="80" width="145" height="30" as="geometry" />
        </mxCell>
        <mxCell id="OUO9ABPIe2xUgSs92kLb-11" value="" style="endArrow=none;dashed=1;html=1;dashPattern=1 3;strokeWidth=2;rounded=0;" edge="1" parent="1">
          <mxGeometry width="50" height="50" relative="1" as="geometry">
            <mxPoint x="50" y="240" as="sourcePoint" />
            <mxPoint x="780" y="240" as="targetPoint" />
          </mxGeometry>
        </mxCell>
        <mxCell id="OUO9ABPIe2xUgSs92kLb-13" value="&lt;font style=&quot;color: rgb(255, 255, 102);&quot;&gt;REDE DOMESTICA&lt;/font&gt;" style="text;html=1;align=center;verticalAlign=middle;whiteSpace=wrap;rounded=0;fontFamily=Courier New;fontStyle=1;fontSize=14;" vertex="1" parent="1">
          <mxGeometry x="40" y="200" width="145" height="30" as="geometry" />
        </mxCell>
        <mxCell id="OUO9ABPIe2xUgSs92kLb-19" style="edgeStyle=orthogonalEdgeStyle;rounded=0;orthogonalLoop=1;jettySize=auto;html=1;" edge="1" parent="1" source="OUO9ABPIe2xUgSs92kLb-14">
          <mxGeometry relative="1" as="geometry">
            <mxPoint x="300" y="810" as="targetPoint" />
          </mxGeometry>
        </mxCell>
        <mxCell id="OUO9ABPIe2xUgSs92kLb-20" style="edgeStyle=orthogonalEdgeStyle;rounded=0;orthogonalLoop=1;jettySize=auto;html=1;" edge="1" parent="1" source="OUO9ABPIe2xUgSs92kLb-14">
          <mxGeometry relative="1" as="geometry">
            <mxPoint x="490" y="810" as="targetPoint" />
          </mxGeometry>
        </mxCell>
        <mxCell id="OUO9ABPIe2xUgSs92kLb-14" value="" style="fontColor=#0066CC;verticalAlign=top;verticalLabelPosition=bottom;labelPosition=center;align=center;html=1;outlineConnect=0;fillColor=#99FF99;strokeColor=#4D4D4D;gradientColor=none;gradientDirection=north;strokeWidth=2;shape=mxgraph.networks.load_balancer;" vertex="1" parent="1">
          <mxGeometry x="352.5" y="260" width="100" height="30" as="geometry" />
        </mxCell>
        <mxCell id="OUO9ABPIe2xUgSs92kLb-15" value="ROUTER" style="text;html=1;align=center;verticalAlign=middle;whiteSpace=wrap;rounded=0;fontFamily=Courier New;fontStyle=1;fontSize=14;" vertex="1" parent="1">
          <mxGeometry x="330" y="300" width="145" height="30" as="geometry" />
        </mxCell>
        <mxCell id="OUO9ABPIe2xUgSs92kLb-16" value="&lt;div style=&quot;margin: 0px; padding: 0px; position: relative; right: 20px; line-height: 20px; font-family: Verdana, Geneva, sans-serif;&quot; class=&quot;top-banner&quot; id=&quot;product-type&quot;&gt;&lt;span style=&quot;background-color: rgb(51, 51, 51);&quot;&gt;&lt;font style=&quot;font-size: 15px; color: light-dark(rgb(0, 0, 0), rgb(153, 255, 153));&quot;&gt;&lt;b style=&quot;&quot;&gt;&amp;nbsp; &amp;nbsp; Omada Gigabit VPN Router&amp;nbsp; &amp;nbsp;&lt;/b&gt;&lt;/font&gt;&lt;/span&gt;&lt;/div&gt;" style="text;html=1;align=center;verticalAlign=middle;whiteSpace=wrap;rounded=0;" vertex="1" parent="1">
          <mxGeometry x="535" y="260" width="250" height="30" as="geometry" />
        </mxCell>
        <mxCell id="OUO9ABPIe2xUgSs92kLb-17" style="edgeStyle=orthogonalEdgeStyle;rounded=0;orthogonalLoop=1;jettySize=auto;html=1;entryX=0.5;entryY=0;entryDx=0;entryDy=0;entryPerimeter=0;" edge="1" parent="1" source="OUO9ABPIe2xUgSs92kLb-10" target="OUO9ABPIe2xUgSs92kLb-14">
          <mxGeometry relative="1" as="geometry" />
        </mxCell>
        <mxCell id="OUO9ABPIe2xUgSs92kLb-21" value="&lt;font style=&quot;color: rgb(153, 255, 153);&quot;&gt;REDE DESENVOLVIMENTO&lt;/font&gt;" style="text;html=1;align=center;verticalAlign=middle;whiteSpace=wrap;rounded=0;fontFamily=Courier New;fontStyle=1;fontSize=14;" vertex="1" parent="1">
          <mxGeometry x="40" y="250" width="190" height="30" as="geometry" />
        </mxCell>
      </root>
    </mxGraphModel>
  </diagram>
</mxfile>
